<svg width="30" height="30" viewBox="0 0 30 30" fill="none" xmlns="http://www.w3.org/2000/svg">
<circle cx="15" cy="15" r="15" fill="#CDB560"/>
<g clip-path="url(#clip0_52451_729)">
<path d="M18.0877 8.82373H11.9114C10.2131 8.82373 8.82324 10.2136 8.82324 11.9119V18.0885C8.82324 19.7864 10.2131 21.1767 11.9114 21.1767H18.0877C19.7861 21.1767 21.1759 19.7864 21.1759 18.0885V11.9119C21.1759 10.2136 19.7861 8.82373 18.0877 8.82373ZM20.1464 18.0885C20.1464 19.2234 19.2233 20.1472 18.0877 20.1472H11.9114C10.7764 20.1472 9.85268 19.2234 9.85268 18.0885V11.9119C9.85268 10.7767 10.7764 9.85317 11.9114 9.85317H18.0877C19.2233 9.85317 20.1464 10.7767 20.1464 11.9119V18.0885Z" fill="#3A3D42"/>
<path d="M18.3433 12.4269C18.7697 12.4269 19.1154 12.0812 19.1154 11.6549C19.1154 11.2285 18.7697 10.8828 18.3433 10.8828C17.9169 10.8828 17.5713 11.2285 17.5713 11.6549C17.5713 12.0812 17.9169 12.4269 18.3433 12.4269Z" fill="#3A3D42"/>
<path d="M14.9993 11.9116C13.2934 11.9116 11.9111 13.294 11.9111 14.9998C11.9111 16.7049 13.2934 18.0882 14.9993 18.0882C16.7047 18.0882 18.0875 16.7049 18.0875 14.9998C18.0875 13.294 16.7047 11.9116 14.9993 11.9116ZM14.9993 17.0588C13.8624 17.0588 12.9406 16.137 12.9406 14.9998C12.9406 13.8626 13.8624 12.9411 14.9993 12.9411C16.1362 12.9411 17.058 13.8626 17.058 14.9998C17.058 16.137 16.1362 17.0588 14.9993 17.0588Z" fill="#3A3D42"/>
</g>
<defs>
<clipPath id="clip0_52451_729">
<rect width="12.3529" height="12.3529" fill="white" transform="translate(8.82324 8.82373)"/>
</clipPath>
</defs>
</svg>
