<svg width="30" height="30" viewBox="0 0 30 30" fill="none" xmlns="http://www.w3.org/2000/svg">
<circle cx="15" cy="15" r="15" fill="#CDB560"/>
<path d="M9.98005 8.65771C9.00954 8.65771 8.375 9.295 8.375 10.1326C8.375 10.9518 8.99064 11.6072 9.94281 11.6072H9.96123C10.9507 11.6072 11.5665 10.9518 11.5665 10.1326C11.548 9.295 10.9507 8.65771 9.98005 8.65771Z" fill="#3A3D42"/>
<path d="M8.54297 12.7729H11.3802V21.3088H8.54297V12.7729Z" fill="#3A3D42"/>
<path d="M18.3454 12.5728C16.8148 12.5728 15.7885 14.011 15.7885 14.011V12.7731H12.9512V21.309H15.7883V16.5422C15.7883 16.287 15.8068 16.0322 15.8818 15.8497C16.0869 15.3402 16.5536 14.8123 17.3375 14.8123C18.3641 14.8123 18.7747 15.595 18.7747 16.7425V21.309H21.6117V16.4147C21.6117 13.7928 20.2119 12.5728 18.3454 12.5728Z" fill="#3A3D42"/>
</svg>
